<svg width="243" height="243" viewBox="0 0 243 243" fill="none" xmlns="http://www.w3.org/2000/svg">
<path d="M23.9111 193.889C89.412 210.526 149.207 218.122 197.333 216.432C176.548 233.057 150.186 243 121.5 243C81.5209 243 46.0531 223.69 23.9111 193.889Z" fill="#FFA726"/>
<path d="M174.652 206.559C171.717 206.493 168.74 206.401 165.725 206.273C148.624 205.553 130.375 203.837 111.191 201.14V156.278H138.937C139.431 156.278 139.923 156.273 140.412 156.267L174.652 206.559Z" fill="#FFA726"/>
<path d="M121.5 0C188.603 0 243 54.3974 243 121.5C243 154.24 230.048 183.953 208.991 205.802C208.986 205.802 208.98 205.802 208.975 205.803L170.558 150.433C170.643 150.395 170.729 150.359 170.814 150.321C179.735 146.35 186.622 140.657 191.476 133.244C196.329 125.699 198.756 116.763 198.756 106.438C198.756 95.9795 196.329 86.9773 191.476 79.4316C188.791 75.2575 185.482 71.6312 181.553 68.5508C166.028 47.1539 139.916 23.8185 106.056 0.972656C111.113 0.331029 116.268 0 121.5 0Z" fill="#FFA726"/>
<path d="M0.708984 134.684C28.8408 142 55.376 146.965 79.3145 149.522V195.905C58.9088 192.093 37.6613 187.271 15.7939 181.443C7.7962 167.37 2.52827 151.544 0.708984 134.684Z" fill="#FFA726"/>
<path d="M91.9307 3.625C109.552 15.0311 125.2 26.5807 138.506 37.9443C146.686 44.931 153.902 51.7827 160.113 58.418C153.724 56.8059 146.665 56 138.937 56H79.3145V139.465C55.292 136.834 28.5087 131.721 0.0302734 124.165C0.0112052 123.279 0 122.391 0 121.5C0 107.21 2.46798 93.4974 6.99902 80.7627C31.8069 82.1277 49.7123 77.2399 54.7949 65.8467L55.0215 65.3135C58.8588 55.8155 53.4277 43.44 41.166 30.3467C55.489 17.714 72.8126 8.40549 91.9307 3.625Z" fill="#FFA726"/>
<path d="M137.166 82.2119C147.004 82.2119 154.35 84.3295 159.204 88.5654C164.058 92.8016 166.485 98.7594 166.485 106.438C166.485 113.983 164.058 119.94 159.204 124.309C154.35 128.545 147.004 130.663 137.166 130.663H111.191V82.2119H137.166Z" fill="#FFA726"/>
<path d="M33.9434 37.2627C38.297 41.922 41.4887 46.258 43.54 50.124C46.7095 56.0973 46.5295 59.6376 45.75 61.5674C44.9703 63.497 42.6401 66.1685 36.2109 68.2637C30.15 70.2387 21.6562 71.2497 10.9961 70.9248C16.7296 58.4178 24.5228 47.0521 33.9434 37.2627Z" fill="#FFA726"/>
</svg>
