<svg width="24" height="24" viewBox="0 0 24 24" fill="none" xmlns="http://www.w3.org/2000/svg">
<path fill-rule="evenodd" clip-rule="evenodd" d="M5.46888 10.2811C5.53855 10.351 5.62132 10.4064 5.71243 10.4442C5.80355 10.482 5.90123 10.5015 5.99988 10.5015C6.09853 10.5015 6.19622 10.482 6.28733 10.4442C6.37845 10.4064 6.46122 10.351 6.53088 10.2811L11.9999 4.81062L17.4689 10.2811C17.6097 10.422 17.8007 10.5011 17.9999 10.5011C18.199 10.5011 18.3901 10.422 18.5309 10.2811C18.6717 10.1403 18.7508 9.94929 18.7508 9.75012C18.7508 9.55096 18.6717 9.35995 18.5309 9.21912L12.5309 3.21912C12.4612 3.14928 12.3785 3.09387 12.2873 3.05606C12.1962 3.01825 12.0985 2.99878 11.9999 2.99878C11.9012 2.99878 11.8036 3.01825 11.7124 3.05606C11.6213 3.09387 11.5386 3.14928 11.4689 3.21912L5.46888 9.21912C5.39904 9.28879 5.34362 9.37156 5.30581 9.46268C5.26801 9.55379 5.24854 9.65147 5.24854 9.75012C5.24854 9.84878 5.26801 9.94646 5.30581 10.0376C5.34362 10.1287 5.39904 10.2115 5.46888 10.2811Z" fill="#DBDCDD"/>
<path fill-rule="evenodd" clip-rule="evenodd" d="M5.46888 13.7189C5.53855 13.649 5.62132 13.5936 5.71243 13.5558C5.80355 13.518 5.90123 13.4985 5.99988 13.4985C6.09853 13.4985 6.19622 13.518 6.28733 13.5558C6.37845 13.5936 6.46122 13.649 6.53088 13.7189L11.9999 19.1894L17.4689 13.7189C17.6097 13.578 17.8007 13.4989 17.9999 13.4989C18.199 13.4989 18.3901 13.578 18.5309 13.7189C18.6717 13.8597 18.7508 14.0507 18.7508 14.2499C18.7508 14.449 18.6717 14.64 18.5309 14.7809L12.5309 20.7809C12.4612 20.8507 12.3785 20.9061 12.2873 20.9439C12.1962 20.9818 12.0985 21.0012 11.9999 21.0012C11.9012 21.0012 11.8036 20.9818 11.7124 20.9439C11.6213 20.9061 11.5386 20.8507 11.4689 20.7809L5.46888 14.7809C5.39904 14.7112 5.34362 14.6284 5.30581 14.5373C5.26801 14.4462 5.24854 14.3485 5.24854 14.2499C5.24854 14.1512 5.26801 14.0535 5.30581 13.9624C5.34362 13.8713 5.39904 13.7885 5.46888 13.7189Z" fill="#FFA726"/>
</svg>
